<mxfile host="app.diagrams.net" modified="2024-05-02T20:52:11.503Z" agent="Mozilla/5.0 (Windows NT 10.0; Win64; x64) AppleWebKit/537.36 (KHTML, like Gecko) Chrome/124.0.0.0 Safari/537.36" etag="Jqv55BUZL94dq4ZelP9Y" version="24.3.1" type="device">
  <diagram name="Page-1" id="TiqCzFDGeYHAMYVKbFeD">
    <mxGraphModel dx="1816" dy="514" grid="1" gridSize="10" guides="1" tooltips="1" connect="1" arrows="1" fold="1" page="1" pageScale="1" pageWidth="827" pageHeight="1169" math="0" shadow="0">
      <root>
        <mxCell id="0" />
        <mxCell id="1" parent="0" />
        <mxCell id="ouX3Kn9K49z3xkb7eKlq-13" value="" style="rounded=0;whiteSpace=wrap;html=1;" vertex="1" parent="1">
          <mxGeometry x="-80" width="480" height="480" as="geometry" />
        </mxCell>
        <mxCell id="ouX3Kn9K49z3xkb7eKlq-8" style="edgeStyle=orthogonalEdgeStyle;rounded=0;orthogonalLoop=1;jettySize=auto;html=1;startArrow=classic;startFill=1;strokeWidth=2;" edge="1" parent="1" source="ouX3Kn9K49z3xkb7eKlq-1" target="ouX3Kn9K49z3xkb7eKlq-5">
          <mxGeometry relative="1" as="geometry" />
        </mxCell>
        <mxCell id="ouX3Kn9K49z3xkb7eKlq-1" value="Api Rest" style="rounded=0;whiteSpace=wrap;html=1;strokeWidth=2;" vertex="1" parent="1">
          <mxGeometry x="240" y="160" width="120" height="160" as="geometry" />
        </mxCell>
        <mxCell id="ouX3Kn9K49z3xkb7eKlq-5" value="Frontend" style="shape=process;whiteSpace=wrap;html=1;backgroundOutline=1;strokeWidth=2;" vertex="1" parent="1">
          <mxGeometry x="440" y="200" width="120" height="80" as="geometry" />
        </mxCell>
        <mxCell id="ouX3Kn9K49z3xkb7eKlq-6" style="edgeStyle=orthogonalEdgeStyle;rounded=0;orthogonalLoop=1;jettySize=auto;html=1;exitX=0;exitY=0.5;exitDx=0;exitDy=0;strokeWidth=2;" edge="1" parent="1" source="ouX3Kn9K49z3xkb7eKlq-1" target="ouX3Kn9K49z3xkb7eKlq-11">
          <mxGeometry relative="1" as="geometry">
            <mxPoint x="120" y="162" as="targetPoint" />
            <Array as="points">
              <mxPoint x="160" y="242" />
              <mxPoint x="160" y="120" />
            </Array>
          </mxGeometry>
        </mxCell>
        <mxCell id="ouX3Kn9K49z3xkb7eKlq-7" style="edgeStyle=orthogonalEdgeStyle;rounded=0;orthogonalLoop=1;jettySize=auto;html=1;startArrow=classic;startFill=1;strokeWidth=2;" edge="1" parent="1" source="ouX3Kn9K49z3xkb7eKlq-1" target="ouX3Kn9K49z3xkb7eKlq-12">
          <mxGeometry relative="1" as="geometry">
            <mxPoint x="120" y="322" as="targetPoint" />
            <Array as="points">
              <mxPoint x="160" y="242" />
              <mxPoint x="160" y="360" />
            </Array>
          </mxGeometry>
        </mxCell>
        <mxCell id="ouX3Kn9K49z3xkb7eKlq-9" value="HTTP" style="text;html=1;align=center;verticalAlign=middle;resizable=0;points=[];autosize=1;strokeColor=none;fillColor=none;" vertex="1" parent="1">
          <mxGeometry x="380" y="212" width="50" height="30" as="geometry" />
        </mxCell>
        <mxCell id="ouX3Kn9K49z3xkb7eKlq-11" value="" style="rounded=0;whiteSpace=wrap;html=1;" vertex="1" parent="1">
          <mxGeometry x="-40" y="42" width="120" height="160" as="geometry" />
        </mxCell>
        <mxCell id="ouX3Kn9K49z3xkb7eKlq-12" value="" style="rounded=0;whiteSpace=wrap;html=1;" vertex="1" parent="1">
          <mxGeometry x="-40" y="282" width="120" height="158" as="geometry" />
        </mxCell>
        <mxCell id="ouX3Kn9K49z3xkb7eKlq-14" value="&lt;div&gt;MongoDB&lt;/div&gt;&lt;div&gt;&amp;lt;servicio&amp;gt;&lt;/div&gt;" style="swimlane;fontStyle=0;childLayout=stackLayout;horizontal=1;startSize=30;horizontalStack=0;resizeParent=1;resizeParentMax=0;resizeLast=0;collapsible=1;marginBottom=0;whiteSpace=wrap;html=1;" vertex="1" parent="1">
          <mxGeometry x="-40" y="40" width="120" height="120" as="geometry" />
        </mxCell>
        <mxCell id="ouX3Kn9K49z3xkb7eKlq-15" value="Item 1" style="text;strokeColor=none;fillColor=none;align=center;verticalAlign=middle;spacingLeft=4;spacingRight=4;overflow=hidden;points=[[0,0.5],[1,0.5]];portConstraint=eastwest;rotatable=0;whiteSpace=wrap;html=1;" vertex="1" parent="ouX3Kn9K49z3xkb7eKlq-14">
          <mxGeometry y="30" width="120" height="30" as="geometry" />
        </mxCell>
        <mxCell id="ouX3Kn9K49z3xkb7eKlq-16" value="Item 2" style="text;strokeColor=none;fillColor=none;align=center;verticalAlign=middle;spacingLeft=4;spacingRight=4;overflow=hidden;points=[[0,0.5],[1,0.5]];portConstraint=eastwest;rotatable=0;whiteSpace=wrap;html=1;" vertex="1" parent="ouX3Kn9K49z3xkb7eKlq-14">
          <mxGeometry y="60" width="120" height="30" as="geometry" />
        </mxCell>
        <mxCell id="ouX3Kn9K49z3xkb7eKlq-17" value="Item 3" style="text;strokeColor=none;fillColor=none;align=center;verticalAlign=middle;spacingLeft=4;spacingRight=4;overflow=hidden;points=[[0,0.5],[1,0.5]];portConstraint=eastwest;rotatable=0;whiteSpace=wrap;html=1;" vertex="1" parent="ouX3Kn9K49z3xkb7eKlq-14">
          <mxGeometry y="90" width="120" height="30" as="geometry" />
        </mxCell>
        <mxCell id="ouX3Kn9K49z3xkb7eKlq-18" value="Docker Host" style="text;html=1;align=center;verticalAlign=middle;resizable=0;points=[];autosize=1;strokeColor=none;fillColor=none;" vertex="1" parent="1">
          <mxGeometry x="130" y="12" width="90" height="30" as="geometry" />
        </mxCell>
        <mxCell id="ouX3Kn9K49z3xkb7eKlq-21" style="edgeStyle=orthogonalEdgeStyle;rounded=0;orthogonalLoop=1;jettySize=auto;html=1;exitX=0.5;exitY=1;exitDx=0;exitDy=0;" edge="1" parent="1" source="ouX3Kn9K49z3xkb7eKlq-20" target="ouX3Kn9K49z3xkb7eKlq-1">
          <mxGeometry relative="1" as="geometry" />
        </mxCell>
        <mxCell id="ouX3Kn9K49z3xkb7eKlq-20" value="Docker Daemon" style="shape=hexagon;perimeter=hexagonPerimeter2;whiteSpace=wrap;html=1;fixedSize=1;" vertex="1" parent="1">
          <mxGeometry x="240" y="60" width="120" height="38" as="geometry" />
        </mxCell>
      </root>
    </mxGraphModel>
  </diagram>
</mxfile>
